<svg id="Laag_1" data-name="Laag 1" xmlns="http://www.w3.org/2000/svg" xmlns:xlink="http://www.w3.org/1999/xlink" viewBox="0 0 1920 1080"><defs><style>.cls-1{fill:url(#Naamloos_verloop_17);}.cls-2{fill:#1d7fd8;}.cls-3{fill:#274998;}.cls-4{fill:none;stroke:#378bd9;stroke-miterlimit:10;stroke-width:5px;}</style><linearGradient id="Naamloos_verloop_17" x1="40.82" y1="874.56" x2="1422.69" y2="371.59" gradientUnits="userSpaceOnUse"><stop offset="0" stop-color="#192072"/><stop offset="0.27" stop-color="#1150a9"/><stop offset="0.41" stop-color="#0e65c1"/><stop offset="0.53" stop-color="#0c71cf"/><stop offset="0.64" stop-color="#0b76d5"/></linearGradient></defs><title>Tekengebied 1</title><path class="cls-1" d="M1920.5,886.93l-339.44,180.72a154.31,154.31,0,0,1-84.13,10.53L-.5,845.93V157.07L338.94,12.35A154.31,154.31,0,0,1,423.07,1.82L1920.5,234.07Z"/><polygon class="cls-2" points="1168.72 234.57 1088.47 257.24 1067.98 338.07 1127.74 396.23 1207.99 373.56 1228.48 292.73 1168.72 234.57"/><polygon class="cls-3" points="95.63 413.2 -27.13 413.2 -88.5 519.5 -27.13 625.81 95.63 625.81 157 519.5 95.63 413.2"/><path class="cls-4" d="M1610.78,828.81l-95.37-64.4a25,25,0,0,0-24.93-1.75L1387,813.06a25,25,0,0,0-14,20.71L1365,948.56A25,25,0,0,0,1375.9,971l95.37,64.4a25,25,0,0,0,24.94,1.75l103.45-50.39a25,25,0,0,0,14-20.72l8.08-114.79A25,25,0,0,0,1610.78,828.81Z"/></svg>